<mxfile host="Electron" modified="2023-07-16T06:03:41.481Z" agent="Mozilla/5.0 (Windows NT 10.0; Win64; x64) AppleWebKit/537.36 (KHTML, like Gecko) draw.io/21.6.1 Chrome/112.0.5615.204 Electron/24.6.1 Safari/537.36" etag="m-B2gaGqnn4PTjOoS1-m" version="21.6.1" type="device">
  <diagram name="Page-1" id="8el6wCqzW-1KSqlOmYRP">
    <mxGraphModel dx="1018" dy="686" grid="1" gridSize="10" guides="1" tooltips="1" connect="1" arrows="1" fold="1" page="1" pageScale="1" pageWidth="850" pageHeight="1100" math="0" shadow="0">
      <root>
        <mxCell id="0" />
        <mxCell id="1" parent="0" />
        <mxCell id="rj8zkRA0bwEhgL64u3YI-13" value="annotation dialog" style="rounded=0;whiteSpace=wrap;html=1;align=center;verticalAlign=top;fillColor=#ffff88;strokeColor=#36393d;" vertex="1" parent="1">
          <mxGeometry x="520" y="130" width="150" height="80" as="geometry" />
        </mxCell>
        <mxCell id="rj8zkRA0bwEhgL64u3YI-1" value="annotator" style="rounded=0;whiteSpace=wrap;html=1;align=center;verticalAlign=top;fillColor=#cce5ff;strokeColor=#36393d;" vertex="1" parent="1">
          <mxGeometry x="40" y="120" width="130" height="75" as="geometry" />
        </mxCell>
        <mxCell id="rj8zkRA0bwEhgL64u3YI-2" value="Annotorious" style="shape=process;whiteSpace=wrap;html=1;backgroundOutline=1;fillColor=#eeeeee;strokeColor=#36393d;" vertex="1" parent="1">
          <mxGeometry x="50" y="145" width="110" height="40" as="geometry" />
        </mxCell>
        <mxCell id="rj8zkRA0bwEhgL64u3YI-3" value="annotations list" style="rounded=0;whiteSpace=wrap;html=1;align=center;verticalAlign=top;fillColor=#cce5ff;strokeColor=#36393d;" vertex="1" parent="1">
          <mxGeometry x="280" y="120" width="200" height="170" as="geometry" />
        </mxCell>
        <mxCell id="rj8zkRA0bwEhgL64u3YI-4" value="A" style="ellipse;whiteSpace=wrap;html=1;aspect=fixed;fillColor=#eeeeee;strokeColor=#36393d;" vertex="1" parent="1">
          <mxGeometry x="190" y="150" width="30" height="30" as="geometry" />
        </mxCell>
        <mxCell id="rj8zkRA0bwEhgL64u3YI-5" value="" style="endArrow=none;html=1;rounded=0;entryX=0;entryY=0.5;entryDx=0;entryDy=0;exitX=1;exitY=0.5;exitDx=0;exitDy=0;" edge="1" parent="1" source="rj8zkRA0bwEhgL64u3YI-2" target="rj8zkRA0bwEhgL64u3YI-4">
          <mxGeometry width="50" height="50" relative="1" as="geometry">
            <mxPoint x="170" y="415" as="sourcePoint" />
            <mxPoint x="220" y="365" as="targetPoint" />
          </mxGeometry>
        </mxCell>
        <mxCell id="rj8zkRA0bwEhgL64u3YI-9" value="list annotation" style="swimlane;horizontal=0;whiteSpace=wrap;html=1;" vertex="1" parent="1">
          <mxGeometry x="300" y="150" width="160" height="130" as="geometry" />
        </mxCell>
        <mxCell id="rj8zkRA0bwEhgL64u3YI-8" value="image metadata" style="rounded=1;whiteSpace=wrap;html=1;fillColor=#ffcc99;strokeColor=#36393d;" vertex="1" parent="rj8zkRA0bwEhgL64u3YI-9">
          <mxGeometry x="40" y="10" width="110" height="30" as="geometry" />
        </mxCell>
        <mxCell id="rj8zkRA0bwEhgL64u3YI-6" value="W3C annotation" style="rounded=1;whiteSpace=wrap;html=1;fillColor=#ffcc99;strokeColor=#36393d;" vertex="1" parent="rj8zkRA0bwEhgL64u3YI-9">
          <mxGeometry x="40" y="50" width="110" height="30" as="geometry" />
        </mxCell>
        <mxCell id="rj8zkRA0bwEhgL64u3YI-7" value="payload" style="rounded=1;whiteSpace=wrap;html=1;fillColor=#ffff88;strokeColor=#36393d;" vertex="1" parent="rj8zkRA0bwEhgL64u3YI-9">
          <mxGeometry x="40" y="90" width="110" height="30" as="geometry" />
        </mxCell>
        <mxCell id="rj8zkRA0bwEhgL64u3YI-10" value="" style="endArrow=classic;html=1;rounded=0;entryX=1;entryY=0.5;entryDx=0;entryDy=0;exitX=0;exitY=0.5;exitDx=0;exitDy=0;" edge="1" parent="1" source="rj8zkRA0bwEhgL64u3YI-3" target="rj8zkRA0bwEhgL64u3YI-4">
          <mxGeometry width="50" height="50" relative="1" as="geometry">
            <mxPoint x="400" y="440" as="sourcePoint" />
            <mxPoint x="450" y="390" as="targetPoint" />
          </mxGeometry>
        </mxCell>
        <mxCell id="rj8zkRA0bwEhgL64u3YI-11" value="annotation editor" style="rounded=0;whiteSpace=wrap;html=1;align=center;verticalAlign=middle;fillColor=#ffff88;strokeColor=#36393d;" vertex="1" parent="1">
          <mxGeometry x="530" y="158" width="130" height="40" as="geometry" />
        </mxCell>
        <mxCell id="rj8zkRA0bwEhgL64u3YI-12" value="" style="endArrow=classic;html=1;rounded=0;entryX=0;entryY=0.5;entryDx=0;entryDy=0;exitX=1;exitY=0.5;exitDx=0;exitDy=0;" edge="1" parent="1" source="rj8zkRA0bwEhgL64u3YI-3" target="rj8zkRA0bwEhgL64u3YI-13">
          <mxGeometry width="50" height="50" relative="1" as="geometry">
            <mxPoint x="400" y="440" as="sourcePoint" />
            <mxPoint x="450" y="390" as="targetPoint" />
          </mxGeometry>
        </mxCell>
        <mxCell id="rj8zkRA0bwEhgL64u3YI-14" value="annotations list editor base" style="rounded=0;whiteSpace=wrap;html=1;align=center;verticalAlign=middle;fillColor=#cce5ff;strokeColor=#36393d;" vertex="1" parent="1">
          <mxGeometry x="40" y="340" width="630" height="40" as="geometry" />
        </mxCell>
        <mxCell id="rj8zkRA0bwEhgL64u3YI-15" value="annotations list editor" style="rounded=0;whiteSpace=wrap;html=1;align=center;verticalAlign=middle;fillColor=#ffff88;strokeColor=#36393d;" vertex="1" parent="1">
          <mxGeometry x="40" y="400" width="630" height="20" as="geometry" />
        </mxCell>
        <mxCell id="rj8zkRA0bwEhgL64u3YI-16" value="" style="endArrow=classic;html=1;rounded=0;exitX=0.262;exitY=-0.039;exitDx=0;exitDy=0;exitPerimeter=0;entryX=0.5;entryY=1;entryDx=0;entryDy=0;" edge="1" parent="1" source="rj8zkRA0bwEhgL64u3YI-14" target="rj8zkRA0bwEhgL64u3YI-4">
          <mxGeometry width="50" height="50" relative="1" as="geometry">
            <mxPoint x="400" y="440" as="sourcePoint" />
            <mxPoint x="450" y="390" as="targetPoint" />
          </mxGeometry>
        </mxCell>
        <mxCell id="rj8zkRA0bwEhgL64u3YI-17" value="" style="endArrow=classic;html=1;rounded=0;entryX=0.5;entryY=1;entryDx=0;entryDy=0;" edge="1" parent="1">
          <mxGeometry width="50" height="50" relative="1" as="geometry">
            <mxPoint x="380" y="340" as="sourcePoint" />
            <mxPoint x="379.5" y="290" as="targetPoint" />
          </mxGeometry>
        </mxCell>
        <mxCell id="rj8zkRA0bwEhgL64u3YI-19" value="" style="endArrow=classic;html=1;rounded=0;" edge="1" parent="1">
          <mxGeometry width="50" height="50" relative="1" as="geometry">
            <mxPoint x="380" y="400" as="sourcePoint" />
            <mxPoint x="380" y="380" as="targetPoint" />
          </mxGeometry>
        </mxCell>
        <mxCell id="rj8zkRA0bwEhgL64u3YI-20" value="gallery image annotator" style="rounded=0;whiteSpace=wrap;html=1;align=center;verticalAlign=middle;fillColor=#ffff88;strokeColor=#36393d;" vertex="1" parent="1">
          <mxGeometry x="40" y="440" width="750" height="20" as="geometry" />
        </mxCell>
        <mxCell id="rj8zkRA0bwEhgL64u3YI-21" value="" style="endArrow=classic;html=1;rounded=0;" edge="1" parent="1">
          <mxGeometry width="50" height="50" relative="1" as="geometry">
            <mxPoint x="380" y="440" as="sourcePoint" />
            <mxPoint x="380" y="420" as="targetPoint" />
          </mxGeometry>
        </mxCell>
        <mxCell id="rj8zkRA0bwEhgL64u3YI-22" value="gallery list" style="rounded=0;whiteSpace=wrap;html=1;fillColor=#cce5ff;strokeColor=#36393d;verticalAlign=top;" vertex="1" parent="1">
          <mxGeometry x="690" y="300" width="100" height="80" as="geometry" />
        </mxCell>
        <mxCell id="rj8zkRA0bwEhgL64u3YI-24" value="" style="endArrow=classic;html=1;rounded=0;entryX=0.5;entryY=1;entryDx=0;entryDy=0;exitX=0.933;exitY=0.075;exitDx=0;exitDy=0;exitPerimeter=0;" edge="1" parent="1" source="rj8zkRA0bwEhgL64u3YI-20" target="rj8zkRA0bwEhgL64u3YI-22">
          <mxGeometry width="50" height="50" relative="1" as="geometry">
            <mxPoint x="460" y="430" as="sourcePoint" />
            <mxPoint x="510" y="380" as="targetPoint" />
          </mxGeometry>
        </mxCell>
        <mxCell id="rj8zkRA0bwEhgL64u3YI-23" value="I" style="ellipse;whiteSpace=wrap;html=1;aspect=fixed;fillColor=#ffcc99;strokeColor=#36393d;" vertex="1" parent="1">
          <mxGeometry x="725" y="395" width="30" height="30" as="geometry" />
        </mxCell>
        <mxCell id="rj8zkRA0bwEhgL64u3YI-25" value="gallery filter" style="rounded=0;whiteSpace=wrap;html=1;fillColor=#cce5ff;strokeColor=#36393d;" vertex="1" parent="1">
          <mxGeometry x="695" y="330" width="90" height="40" as="geometry" />
        </mxCell>
        <mxCell id="rj8zkRA0bwEhgL64u3YI-26" value="gallery service" style="rounded=0;whiteSpace=wrap;html=1;align=center;verticalAlign=middle;fillColor=#ffff88;strokeColor=#36393d;" vertex="1" parent="1">
          <mxGeometry x="690" y="240" width="100" height="40" as="geometry" />
        </mxCell>
        <mxCell id="rj8zkRA0bwEhgL64u3YI-27" value="" style="endArrow=classic;html=1;rounded=0;entryX=0.5;entryY=1;entryDx=0;entryDy=0;exitX=0.5;exitY=0;exitDx=0;exitDy=0;" edge="1" parent="1" source="rj8zkRA0bwEhgL64u3YI-22" target="rj8zkRA0bwEhgL64u3YI-26">
          <mxGeometry width="50" height="50" relative="1" as="geometry">
            <mxPoint x="460" y="430" as="sourcePoint" />
            <mxPoint x="510" y="380" as="targetPoint" />
          </mxGeometry>
        </mxCell>
      </root>
    </mxGraphModel>
  </diagram>
</mxfile>
